<svg xmlns="http://www.w3.org/2000/svg" viewBox="0 0 96 96">
  <path class="secondary" stroke="white" stroke-width="3px" fill="none" d="M46.57,24.63l.71.43a1.11,1.11,0,0,0,.72.14,1.33,1.33,0,0,0,.72-.14l.71-.43a26.71,26.71,0,0,0,5.3-3.87,9.08,9.08,0,0,0,2.73-6.59c0-3.44-2.58-6.31-5.73-6.16A6.79,6.79,0,0,0,48,9.15,6.79,6.79,0,0,0,44.27,8c-3.29,0-5.73,2.72-5.73,6.3a8.76,8.76,0,0,0,2.73,6.45A31.57,31.57,0,0,0,46.57,24.63Z"/>
  <path class="primary" d="M78,65.5H74.25V31.75H21.75V65.5H18v15h5.62v3.75h3.76V80.5H68.62v3.75h3.76V80.5H78Zm-7.5-30v16a7.37,7.37,0,0,0-2.26-.87,5.47,5.47,0,0,0,.38-2A5.62,5.62,0,0,0,63,43H51.75A5.62,5.62,0,0,0,48,44.44,5.62,5.62,0,0,0,44.25,43H33a5.62,5.62,0,0,0-5.62,5.62,5.47,5.47,0,0,0,.38,2,7.37,7.37,0,0,0-2.26.87v-16ZM31.12,48.62A1.88,1.88,0,0,1,33,46.75H44.25a1.88,1.88,0,0,1,0,3.75H33A1.88,1.88,0,0,1,31.12,48.62Zm18.76,0a1.87,1.87,0,0,1,1.87-1.87H63a1.88,1.88,0,1,1,0,3.75H51.75A1.88,1.88,0,0,1,49.88,48.62ZM25.5,59.88V58a3.77,3.77,0,0,1,3.75-3.78h37.5A3.77,3.77,0,0,1,70.5,58V65.5h-45ZM74.25,76.75H21.75v-7.5h52.5Z"/>
</svg>
