<?xml version="1.0" encoding="utf-8"?>
<svg version="1.1" xmlns="http://www.w3.org/2000/svg" viewBox="0 0 96 96" >
  <g>
    <path class="primary" d="M17.3,61.4c-1.9,0-3.4,1.5-3.4,3.4c0,1.9,1.5,3.4,3.4,3.4c1.9,0,3.4-1.5,3.4-3.4C20.7,62.9,19.1,61.4,17.3,61.4z M17.3,66.3c-0.8,0-1.5-0.7-1.5-1.5c0-0.8,0.7-1.5,1.5-1.5c0.8,0,1.5,0.7,1.5,1.5C18.7,65.6,18.1,66.3,17.3,66.3z" />
    <path class="primary" d="M92.4,60.4h-0.1v-32c0-0.5-0.4-1-1-1h-4.6c-0.5,0-1,0.4-1,1v4.9h-2.9c-2.8,0-5.1,2.3-5.1,5.1v7.4c0,2.8,2.3,5.1,5.1,5.1 h7.4v3.4h-1.1c-1.7,0-3,1.4-3,3v3h-0.4c-1.5-2.4-4.2-3.9-7.1-3.9c-3,0-5.6,1.6-7.1,4c-0.1,0-0.2,0-0.2,0H24.3 c-1.5-2.4-4.2-3.9-7.1-3.9c-2.9,0-5.5,1.5-7.1,3.9H9.8v-3c0-1.7-1.4-3-3-3H5.7V31.1c0-0.2,0-0.5,0-0.7h76.4c0.5,0,1-0.4,1-1 s-0.4-1-1-1H6.3c1-2.1,3.2-3.6,5.6-3.6h69.3c1.2,0,2.3,0.2,3.4,0.7c0.5,0.2,1.1,0,1.3-0.5c0.2-0.5,0-1.1-0.5-1.3 c-1.3-0.5-2.7-0.8-4.1-0.8H11.9c-3.8,0-7.1,2.6-8,6.3l0,0c-0.1,0.6-0.2,1.2-0.2,1.9v29.3H3.6C1.6,60.4,0,62,0,64s1.6,3.6,3.6,3.6 h5.9c1.2,3.3,4.3,5.5,7.8,5.5c3.5,0,6.6-2.2,7.8-5.5h1.7c0.5,0,1-0.4,1-1c0-0.5-0.4-1-1-1h-1.2c0-0.3,0-0.5,0-0.8 c0-0.8-0.1-1.6-0.3-2.4h45.6c-0.2,0.8-0.4,1.6-0.4,2.4c0,0.3,0,0.5,0,0.8H30.9c-0.5,0-1,0.4-1,1c0,0.5,0.4,1,1,1h40 c1.2,3.3,4.3,5.5,7.8,5.5c3.5,0,6.6-2.2,7.8-5.5h5.9c2,0,3.6-1.6,3.6-3.6C96,62,94.4,60.4,92.4,60.4z M78.7,71.1 c-3.5,0-6.3-2.8-6.3-6.3c0-3.5,2.8-6.3,6.3-6.3c3.5,0,6.3,2.8,6.3,6.3C85.1,68.3,82.2,71.1,78.7,71.1z M90.3,29.4v4h-2.6v-4H90.3z  M82.9,49c-1.7,0-3.1-1.4-3.1-3.1v-7.4c0-1.7,1.4-3.1,3.1-3.1h7.4V49H82.9z M88.2,57.4c0-0.6,0.5-1,1-1h1.1v4.1h-2.1L88.2,57.4z  M86.7,62.4h5.7c0.9,0,1.6,0.7,1.6,1.6s-0.7,1.6-1.6,1.6H87c0-0.3,0-0.5,0-0.8C87,64,86.9,63.2,86.7,62.4z M5.7,56.4h1.1 c0.6,0,1,0.5,1,1v3H5.7V56.4z M9,65.6H3.6C2.7,65.6,2,64.9,2,64s0.7-1.6,1.6-1.6h5.7C9.1,63.2,9,64,9,64.8C9,65.1,9,65.3,9,65.6z  M17.3,71.1c-3.5,0-6.3-2.8-6.3-6.3c0-3.5,2.8-6.3,6.3-6.3c3.5,0,6.3,2.8,6.3,6.3C23.6,68.3,20.7,71.1,17.3,71.1z" />
    <path class="primary" d="M78.7,61.4c-1.9,0-3.4,1.5-3.4,3.4c0,1.9,1.5,3.4,3.4,3.4s3.4-1.5,3.4-3.4C82.2,62.9,80.6,61.4,78.7,61.4z M78.7,66.3 c-0.8,0-1.5-0.7-1.5-1.5c0-0.8,0.7-1.5,1.5-1.5c0.8,0,1.5,0.7,1.5,1.5C80.2,65.6,79.6,66.3,78.7,66.3z" />
    <path class="primary" d="M65.8,53.2H36.9c-0.5,0-1,0.4-1,1c0,0.5,0.4,1,1,1h28.9c0.5,0,1-0.4,1-1C66.8,53.6,66.3,53.2,65.8,53.2z" />
    <path class="primary" d="M65.8,57.3h-8.6c-0.5,0-1,0.4-1,1s0.4,1,1,1h8.6c0.5,0,1-0.4,1-1S66.3,57.3,65.8,57.3z" />
    <path class="primary" d="M71.8,45.3V34.4c0-0.5-0.4-1-1-1H59.9c-0.5,0-1,0.4-1,1v10.9c0,0.5,0.4,1,1,1h10.9C71.3,46.3,71.8,45.8,71.8,45.3z M69.8,35.3v9h-9v-9H69.8z" />
    <path class="primary" d="M55.6,46.3c0.5,0,1-0.4,1-1V34.4c0-0.5-0.4-1-1-1H44.6c-0.5,0-1,0.4-1,1v10.9c0,0.5,0.4,1,1,1H55.6z M54.6,35.3v9h-9v-9 H54.6z" />
    <path class="primary" d="M41.3,45.3V34.4c0-0.5-0.4-1-1-1H29.4c-0.5,0-1,0.4-1,1v10.9c0,0.5,0.4,1,1,1h10.9C40.8,46.3,41.3,45.8,41.3,45.3z M39.3,35.3v9h-9v-9H39.3z" />
    <path class="primary" d="M14.1,33.4c-0.5,0-1,0.4-1,1v10.9c0,0.5,0.4,1,1,1h10.9c0.5,0,1-0.4,1-1V34.4c0-0.5-0.4-1-1-1H14.1z M15.1,44.3v-9h9v9 H15.1z" />
  </g>
</svg>
