<svg xmlns="http://www.w3.org/2000/svg" viewBox="0 0 112 112">
  <path class="primary" d="M28.69,83.19a3.6,3.6,0,1,0,3.6,3.59A3.64,3.64,0,0,0,28.69,83.19Zm0,5.18a1.59,1.59,0,1,1,1.59-1.59A1.7,1.7,0,0,1,28.69,88.37Z"/>
  <path class="primary" d="M108.19,82.13h0l-.11-33.88A1.06,1.06,0,0,0,107,47.19h-4.86a1.06,1.06,0,0,0-1.06,1.06v5.19H98a5.42,5.42,0,0,0-5.4,5.4v7.83a5.42,5.42,0,0,0,5.4,5.4h7.83v3.6H104.7a3.17,3.17,0,0,0-3.18,3.17h0V82h-.42a8.85,8.85,0,0,0-15,.11h-50A8.88,8.88,0,0,0,28.58,78a9,9,0,0,0-7.51,4.13h-.32V79a3.18,3.18,0,0,0-3.18-3.18H16.41V50.37H97.29a1.06,1.06,0,0,0,1-1.06,1,1,0,0,0-.92-1.06H17A6.72,6.72,0,0,1,23,44.44H96.33a8.42,8.42,0,0,1,3.6.74,1.06,1.06,0,0,0,.85-1.9,12,12,0,0,0-4.34-.85H23A8.73,8.73,0,0,0,14.5,49.1h0a11.23,11.23,0,0,0-.21,2v31h-.1a3.81,3.81,0,1,0,0,7.62h6.24a8.77,8.77,0,0,0,16.52,0h1.79a1.06,1.06,0,0,0,0-2.12H37.47v-.85a10.39,10.39,0,0,0-.31-2.54H85.43A10.46,10.46,0,0,0,85,86.78v.85H43.09a1.06,1.06,0,0,0,0,2.12H85.43a8.76,8.76,0,0,0,16.51,0h6.25a3.81,3.81,0,0,0,0-7.62ZM93.69,93.45a6.64,6.64,0,1,1,.06,0ZM106,49.31v4.23h-2.76V49.31ZM98.13,70.06a3.3,3.3,0,0,1-3.28-3.28V58.94a3.3,3.3,0,0,1,3.28-3.28H106v14.4ZM103.74,79a1.07,1.07,0,0,1,1.06-1.06H106v4.34h-2.23Zm-1.58,5.29h6a1.7,1.7,0,0,1,0,3.39h-5.72v-.85A10.9,10.9,0,0,0,102.16,84.24ZM16.41,77.89h1.16A1.06,1.06,0,0,1,18.63,79v3.18H16.41Zm3.49,9.74H14.19a1.7,1.7,0,1,1,0-3.39h6a10.4,10.4,0,0,0-.32,2.54Zm8.79,5.82a6.67,6.67,0,1,1,6.67-6.67A6.66,6.66,0,0,1,28.69,93.45Z"/>
  <path class="primary" d="M93.69,83.19a3.6,3.6,0,1,0,3.6,3.59,3.5,3.5,0,0,0-3.41-3.59Zm0,5.18a1.59,1.59,0,1,1,1.58-1.59,1.55,1.55,0,0,1-1.52,1.59Z"/>
  <path class="primary" d="M80,74.5H49.44a1.06,1.06,0,1,0,0,2.12H80a1.06,1.06,0,0,0,0-2.12Z"/>
  <path class="primary" d="M80,78.84h-9.1a1.06,1.06,0,0,0-1.06,1.06A1,1,0,0,0,70.79,81H80a1.06,1.06,0,0,0,0-2.12Z"/>
  <path class="primary" d="M86.38,66.14V54.6a1.06,1.06,0,0,0-1.06-1.06H73.78a1.06,1.06,0,0,0-1,1.06V66.14a1.05,1.05,0,0,0,1,1.06H85.32A1.14,1.14,0,0,0,86.38,66.14ZM84.26,55.56v9.52H74.74V55.56Z"/>
  <path class="primary" d="M69.23,67.2a1.05,1.05,0,0,0,1.06-1.06V54.6a1.06,1.06,0,0,0-1.06-1.06H57.59a1.06,1.06,0,0,0-1.06,1.06V66.14a1.05,1.05,0,0,0,1.06,1.06ZM68.17,55.56v9.52H58.65V55.56Z"/>
  <path class="primary" d="M54.09,66.14V54.6A1.06,1.06,0,0,0,53,53.54H41.5a1.06,1.06,0,0,0-1.06,1.06V66.14A1.05,1.05,0,0,0,41.5,67.2H53A1.14,1.14,0,0,0,54.09,66.14ZM52,55.56v9.52H42.45V55.56Z"/>
  <path class="primary" d="M25.3,53.54a1.07,1.07,0,0,0-1.06,1.06V66.14A1.06,1.06,0,0,0,25.3,67.2H36.84a1.06,1.06,0,0,0,1.06-1.06V54.6a1.07,1.07,0,0,0-1.06-1.06Zm1.06,11.54V55.56h9.53v9.52Z"/>
  <path class="primary" d="M9.32,54.6H3.18a1,1,0,0,0-1.06.93.29.29,0,0,0,0,.13,1.05,1.05,0,0,0,1.06,1.06h7.19V54.6Z"/>
  <path class="primary" d="M8.26,59.9H2.12A1.05,1.05,0,0,0,1.06,61,1.14,1.14,0,0,0,2.12,62h8.25V59.9Z"/>
  <path class="primary" d="M7.2,65.19H1.06A1.05,1.05,0,0,0,0,66.25a1.15,1.15,0,0,0,1.06,1.06h9.31V65.19Z"/>
</svg>
