<svg xmlns="http://www.w3.org/2000/svg" viewBox="0 0 96 96">
  <path class="primary" d="M54.92,44.4a.9.9,0,0,0-1,1V55.58a5.5,5.5,0,0,1-11,0V45.35a.95.95,0,0,0-1.9,0V55.58a7.39,7.39,0,0,0,14.78,0V45.35A1,1,0,0,0,54.92,44.4Z"/>
  <path class="primary" d="M48.47,49.89a.89.89,0,0,0,1-.94v-3.7a.95.95,0,0,0-1.89,0V49A.94.94,0,0,0,48.47,49.89Z"/>
  <path class="primary" d="M51.6,49.89a.89.89,0,0,0,.95-.94v-3.7a1,1,0,0,0-1.9,0V49A1,1,0,0,0,51.6,49.89Z"/>
  <path class="primary" d="M45.35,49.89a.88.88,0,0,0,.94-.94v-3.7a.95.95,0,0,0-1.89,0V49A.89.89,0,0,0,45.35,49.89Z"/>
  <circle class="primary" cx="46.39" cy="53.59" r="0.85"/>
  <circle class="primary" cx="50.75" cy="53.59" r="0.85"/>
  <path class="primary" d="M41.37,63.35h-.1a3.15,3.15,0,0,0-3.12,3.12.95.95,0,1,0,1.89,0,1.26,1.26,0,0,1,1.23-1.23h.1a.9.9,0,0,0,1-.95A1,1,0,0,0,41.37,63.35Z"/>
  <circle class="primary" cx="28.77" cy="58.89" r="0.85"/>
  <circle class="primary" cx="33.22" cy="58.89" r="0.85"/>
  <path class="primary" d="M52.36,64.2a1.48,1.48,0,0,0-1.52,0l-1.7,1a.74.74,0,0,0-.38.38h-.29l-.38-.38-1.7-1a1.48,1.48,0,0,0-1.52,0,1.51,1.51,0,0,0-.75,1.33v2a1.51,1.51,0,0,0,.75,1.32,1.74,1.74,0,0,0,.76.19,1.7,1.7,0,0,0,.76-.19l1.61-1a.72.72,0,0,0,.38-.37h.28l.38.37,1.71,1a2.3,2.3,0,0,0,.76.19,1.84,1.84,0,0,0,.75-.19A1.51,1.51,0,0,0,53,67.61v-2A1.4,1.4,0,0,0,52.36,64.2Z"/>
  <path class="primary" d="M60.6,40.33H15.88a3.35,3.35,0,0,0-3.31,3.31V71.87a3.36,3.36,0,0,0,3.31,3.32H60.6a3.36,3.36,0,0,0,3.32-3.32V43.64A3.3,3.3,0,0,0,60.6,40.33ZM39.09,72.25H36.73v-1.8h1A1.26,1.26,0,0,1,39,71.68v.57Zm-4.16,0H33.79a4.44,4.44,0,0,0,1.14-.85Zm-8.06-1.13a6.36,6.36,0,0,0,1.42,1.23H26.87ZM25,72.25H22.42v-.57a1.26,1.26,0,0,1,1.23-1.23h1.23v1.8Zm36.09-.47a.45.45,0,0,1-.47.47h-.47V66.38A3.15,3.15,0,0,0,57,63.25H55.86a1,1,0,0,0,0,1.9H57a1.26,1.26,0,0,1,1.23,1.23v5.87H41v-.57a3.15,3.15,0,0,0-3.13-3.12H36.35a3.19,3.19,0,0,0-2.56,1.23A3.52,3.52,0,0,1,31,71.12h0a3.53,3.53,0,0,1-2.75-1.33,3.46,3.46,0,0,0-2.55-1.23h-2a3.15,3.15,0,0,0-3.13,3.12v.57H18.06V65.43a20.17,20.17,0,0,1,2.56-9.66V65.91a1,1,0,0,0,1.9,0V54.54a3.86,3.86,0,0,1,1-2.66l.47-.47a4,4,0,0,1,2.56-.95H35A1.51,1.51,0,0,1,36.54,52v1.8h-.86a1.39,1.39,0,0,1-1.42-1.42.95.95,0,1,0-1.89,0A1.45,1.45,0,0,1,31,53.78H27.16a3.39,3.39,0,0,0-3.41,3.41v3.6a7.39,7.39,0,1,0,14.78,0V52.07a3.35,3.35,0,0,0-2.75-3.31,2.06,2.06,0,0,0-.47-1.8,2.34,2.34,0,0,0-1.8-.85h-.1c-.09,0-.28-.1-.28-.19l-.38-.48a2.49,2.49,0,0,0-1.9-.95,2.28,2.28,0,0,0-1.89,1l-.29.38c-.09.09-.19.19-.28.19a2.48,2.48,0,0,0-1.9.94c-.09.1-.09.19-.18.38A22.92,22.92,0,0,0,22.89,50a4.46,4.46,0,0,0-.94.95,21.5,21.5,0,0,0-5.78,14.49v6.82H16a.44.44,0,0,1-.47-.47V43.64a.44.44,0,0,1,.47-.47H60.69a.45.45,0,0,1,.48.47V71.78ZM33.69,48.66H28l-.09-.19c-.1-.19,0-.28,0-.38s.09-.18.28-.18a2.16,2.16,0,0,0,1.89-1l.29-.38a.33.33,0,0,1,.28-.19c.1,0,.19,0,.29.19l.38.48a2.45,2.45,0,0,0,1.89.95h.1c.19,0,.28.09.28.18s.09.19.09.29Zm2.75,7.11v5a5.5,5.5,0,0,1-11,0v-3.6A1.51,1.51,0,0,1,27,55.67h3.79A3.16,3.16,0,0,0,33,54.73a3.3,3.3,0,0,0,2.46,1Z"/>
  <path class="primary" d="M76.71,56.34a9.38,9.38,0,1,0,9.37,9.38A9.4,9.4,0,0,0,76.71,56.34Zm0,15.82a6.54,6.54,0,1,1,6.53-6.54A6.56,6.56,0,0,1,76.71,72.16Z"/>
  <circle class="primary" cx="72.35" cy="50.27" r="2.46"/>
  <circle class="primary" cx="81.06" cy="50.27" r="2.46"/>
  <path class="primary" d="M86,24.51H82.48v-.76a3.36,3.36,0,0,0-3.31-3.32H74.24a3.36,3.36,0,0,0-3.31,3.32v.76H62.21l-2.94-8.34A6.21,6.21,0,0,0,53.49,12H33a6,6,0,0,0-5.78,4.17l-2.93,8.34H10a6.14,6.14,0,0,0-6.16,6.15V77.84A6.21,6.21,0,0,0,10,84H86a6.15,6.15,0,0,0,6.16-6.16V30.66A6.14,6.14,0,0,0,86,24.51Zm-12.22-.67a.45.45,0,0,1,.47-.47h4.93a.45.45,0,0,1,.47.47v.76H73.77Zm15.54,54A3.36,3.36,0,0,1,86,81.16H10a3.36,3.36,0,0,1-3.32-3.32V30.66A3.36,3.36,0,0,1,10,27.35h16.3l3.6-10.23A3.26,3.26,0,0,1,33,14.94H53.49a3.26,3.26,0,0,1,3.13,2.18l3.6,10.23H86.08a3.36,3.36,0,0,1,3.32,3.31V77.84Z"/>
  <path class="primary" d="M36.44,32H50.18a3.36,3.36,0,0,0,3.31-3.32V21.85a3.35,3.35,0,0,0-3.31-3.31H36.44a3.35,3.35,0,0,0-3.31,3.31v6.82A3.24,3.24,0,0,0,36.44,32ZM36,22a.45.45,0,0,1,.47-.48H50.18a.45.45,0,0,1,.47.48v6.82a.45.45,0,0,1-.47.47H36.44a.45.45,0,0,1-.47-.47Z"/>
</svg>
