<svg xmlns="http://www.w3.org/2000/svg" viewBox="0 0 96 96">
  <path d="M45.39,30.23a1.67,1.67,0,1,0,3.33,0c0-.52.15-.7.56-1.19a4.81,4.81,0,0,0,0-6.66c-.41-.49-.56-.67-.56-1.19s.15-.71.56-1.19a4.83,4.83,0,0,0,1.34-3.34,1.67,1.67,0,0,0-3.33,0c0,.53-.16.71-.56,1.2a4.81,4.81,0,0,0,0,6.66c.4.49.56.67.56,1.19s-.16.71-.56,1.19A4.75,4.75,0,0,0,45.39,30.23Z"/>
  <path d="M52.79,33.93a1.67,1.67,0,1,0,3.33,0c0-.52.15-.7.56-1.19a4.81,4.81,0,0,0,0-6.66c-.41-.49-.56-.67-.56-1.19s.15-.71.56-1.19A4.83,4.83,0,0,0,58,20.36a1.67,1.67,0,0,0-3.33,0c0,.53-.16.71-.56,1.2a4.81,4.81,0,0,0,0,6.66c.4.49.56.67.56,1.19s-.16.71-.56,1.19A4.75,4.75,0,0,0,52.79,33.93Z"/>
  <path d="M38,33.93a1.67,1.67,0,1,0,3.33,0c0-.52.15-.7.56-1.19a4.81,4.81,0,0,0,0-6.66c-.41-.49-.56-.67-.56-1.19s.15-.71.56-1.19a4.83,4.83,0,0,0,1.34-3.34,1.67,1.67,0,0,0-3.33,0c0,.53-.16.71-.56,1.2a4.81,4.81,0,0,0,0,6.66c.4.49.56.67.56,1.19s-.16.71-.56,1.19A4.75,4.75,0,0,0,38,33.93Z"/>
  <path d="M10.77,75.18v5a1.67,1.67,0,0,0,1.67,1.66h3.14l2.86,4.42a1.68,1.68,0,0,0,1.4.76H76.16a1.68,1.68,0,0,0,1.4-.76l2.86-4.42h3.14a1.67,1.67,0,0,0,1.67-1.66v-5a1.66,1.66,0,0,0-1.67-1.66h-4.1A31.56,31.56,0,0,0,52.8,44a5.54,5.54,0,0,0,.82-2.91,5.62,5.62,0,0,0-11.24,0A5.54,5.54,0,0,0,43.2,44,31.55,31.55,0,0,0,16.54,73.52h-4.1A1.66,1.66,0,0,0,10.77,75.18Zm39.52-34.1A2.29,2.29,0,1,1,48,38.8,2.29,2.29,0,0,1,50.29,41.08ZM19.54,81.82H76.46l-1.2,1.85H20.74Zm-5.44-5h4.07a1.67,1.67,0,0,0,1.66-1.67v-.09a28.17,28.17,0,0,1,56.34,0,1.72,1.72,0,0,0,1.66,1.73H81.9v1.64H14.1Z"/>
  <path d="M47.81,50.89c2,0,2.12,1.31,2.12,1.7a1.73,1.73,0,0,1-1.64,1.68H47.8a1.69,1.69,0,0,1-1.71-1.8A1.73,1.73,0,0,1,47.81,50.89Z"/>
  <path d="M54.15,51.74a23.91,23.91,0,0,1,17.32,18,1.65,1.65,0,0,1-1.27,2,1.47,1.47,0,0,1-.36,0,1.65,1.65,0,0,1-1.62-1.3A20.87,20.87,0,0,0,53.3,55a1.67,1.67,0,0,1,.85-3.22Z"/>
</svg>
