<svg xmlns="http://www.w3.org/2000/svg" viewBox="0 0 133.25 131.25">
  <path class="primary" d="M25.57,65.65a41.56,41.56,0,1,1,83.12,0,41.56,41.56,0,0,1-83.12,0Zm3.37,0A38.19,38.19,0,1,0,67.28,27.31,38.3,38.3,0,0,0,28.94,65.65Z"/>
  <path class="primary" d="M32.62,65.65a1.72,1.72,0,0,1,1.54-1.84A2,2,0,0,1,36,65.65a1.72,1.72,0,0,1-1.84,1.54A1.46,1.46,0,0,1,32.62,65.65ZM45.2,87.74a1.48,1.48,0,0,1,0,2.14,1.44,1.44,0,0,1-2.46,0,1.48,1.48,0,0,1,0-2.14A1.44,1.44,0,0,1,45.2,87.74ZM91.51,41.12a1.43,1.43,0,0,1,0,2.45,1.49,1.49,0,0,1-2.15,0,1.43,1.43,0,0,1,0-2.45A1.48,1.48,0,0,1,91.51,41.12ZM89.36,87.74a1.52,1.52,0,0,1,2.15,2.14,1.52,1.52,0,1,1-2.15-2.14ZM42.74,41.12a1.74,1.74,0,0,1,2.46,2.45,1.74,1.74,0,1,1-2.46-2.45ZM67.28,96.63a1.87,1.87,0,0,1,0,3.68,1.84,1.84,0,0,1,0-3.68Zm0-65.63a1.44,1.44,0,0,1,1.53,1.53,1.71,1.71,0,0,1-1.53,1.84,2,2,0,0,1-1.84-1.84A1.71,1.71,0,0,1,67.28,31Zm31,34.65a1.84,1.84,0,0,1,3.68,0,1.87,1.87,0,0,1-3.68,0Z"/>
  <path class="primary" d="M85.07,67.19H71.88a3.93,3.93,0,0,1-3.07,3.06V89.58a1.53,1.53,0,1,1-3.06,0V70.25a4.87,4.87,0,0,1-3.68-4.6,5.37,5.37,0,0,1,5.21-5.21,4.87,4.87,0,0,1,4.6,3.68H85.07A1.54,1.54,0,1,1,85.07,67.19Zm-17.79.92a2.64,2.64,0,0,0,2.45-2.46,2.41,2.41,0,0,0-2.45-2.45,2.26,2.26,0,0,0-2.45,2.45A2.42,2.42,0,0,0,67.28,68.11Z"/>
  <path class="primary" d="M19.13,65.65A48,48,0,1,1,67.28,113.5,48,48,0,0,1,19.13,65.65Zm4,0A44,44,0,1,0,67.28,21.49,43.92,43.92,0,0,0,23.11,65.65Z"/>
</svg>
