<svg xmlns="http://www.w3.org/2000/svg" viewBox="0 0 96 96">
  <path class="primary" d="M14.81,41.68a1.45,1.45,0,1,0,2.89,0V19.49a8.11,8.11,0,0,1,1.74-5L20.89,13a8.05,8.05,0,0,1,5-1.74H42.4a3.41,3.41,0,0,1,3.38,3.38v4H43.85a3.26,3.26,0,0,1-3.28-3.28,1.45,1.45,0,1,0-2.89,0,3,3,0,0,1-3.09,3.09H27.16a6.26,6.26,0,0,0-6.27,6.27v7a13.9,13.9,0,1,0,27.79,0V14.57a6.18,6.18,0,0,0-5.41-6.18l.1-.19a4.08,4.08,0,0,0-4-5h-.29a1.34,1.34,0,0,1-1-.48l-.68-1A3.85,3.85,0,0,0,34.11.1a4,4,0,0,0-3.28,1.83l-.49.77a1.18,1.18,0,0,1-1,.48A4.21,4.21,0,0,0,26,4.92a1.86,1.86,0,0,0-.38.77A37.79,37.79,0,0,0,19,10.81a10.22,10.22,0,0,0-1.83,1.83A41.17,41.17,0,0,0,6,40.62V70.14a1.49,1.49,0,0,0,1.45,1.45,1.48,1.48,0,0,0,1.44-1.45V40.62a38.19,38.19,0,0,1,5.89-20.26Zm19.88,1.06a11,11,0,0,1-11-11v-7a3.42,3.42,0,0,1,3.37-3.38h7.43a6.07,6.07,0,0,0,4.54-2,6.14,6.14,0,0,0,4.72,2.22h1.93V31.74A11.06,11.06,0,0,1,34.69,42.74ZM29.28,6.08a4.07,4.07,0,0,0,3.38-1.83l.48-.78a1.21,1.21,0,0,1,1.93,0l.68,1A4.06,4.06,0,0,0,39,6.08h.29a1,1,0,0,1,.86.48,1.2,1.2,0,0,1,.2,1l-.1.77H28.51l-.29-.68a1.29,1.29,0,0,1,.1-1.06A1.34,1.34,0,0,1,29.28,6.08Z"/>
  <circle class="primary" cx="30.44" cy="27.88" r="1.64"/>
  <circle class="primary" cx="39.12" cy="27.88" r="1.64"/>
  <path class="primary" d="M37.68,35.6a4.26,4.26,0,0,1-6,0,1.43,1.43,0,1,0-2,2,7.17,7.17,0,0,0,5,2.12,6.76,6.76,0,0,0,5-2.12,1.43,1.43,0,0,0-2-2Z"/>
  <path class="primary" d="M41.92,82.3a1.46,1.46,0,1,0-2.89.39l1.54,11.67A1.39,1.39,0,0,0,42,95.61h.19A1.5,1.5,0,0,0,43.47,94Z"/>
  <path class="primary" d="M29.48,81.05a1.35,1.35,0,0,0-1.64,1.15L25.71,93.88a1.37,1.37,0,0,0,1.16,1.64h.29a1.54,1.54,0,0,0,1.45-1.16l2-11.58A1.49,1.49,0,0,0,29.48,81.05Z"/>
  <path class="primary" d="M35,81.05a1.47,1.47,0,0,0-1.44,1.44V94.17a1.45,1.45,0,0,0,2.89,0V82.49A1.42,1.42,0,0,0,35,81.05Z"/>
  <path class="primary" d="M67.78,35.31A13.89,13.89,0,0,0,81.67,21.42v-20A1.48,1.48,0,0,0,80.23,0a1.35,1.35,0,0,0-1.36,1.45v20a11,11,0,1,1-22,0v-20a1.45,1.45,0,0,0-2.9,0v20A13.82,13.82,0,0,0,67.78,35.31Z"/>
  <path class="primary" d="M67.78,10a1.48,1.48,0,0,0,1.45-1.44V1.45A1.49,1.49,0,0,0,67.78,0a1.43,1.43,0,0,0-1.45,1.45V8.59A1.48,1.48,0,0,0,67.78,10Z"/>
  <path class="primary" d="M73.86,10A1.47,1.47,0,0,0,75.3,8.59V1.45a1.45,1.45,0,1,0-2.89,0V8.59A1.48,1.48,0,0,0,73.86,10Z"/>
  <path class="primary" d="M61.6,10a1.48,1.48,0,0,0,1.45-1.44V1.45a1.45,1.45,0,1,0-2.89,0V8.59A1.47,1.47,0,0,0,61.6,10Z"/>
  <circle class="primary" cx="63.63" cy="17.66" r="1.64"/>
  <circle class="primary" cx="72.22" cy="17.66" r="1.64"/>
  <path class="primary" d="M84.28,37H78.39a1.45,1.45,0,1,0,0,2.9h5.89a2.8,2.8,0,0,1,2.8,2.8v36a.47.47,0,0,1-.49.49H84.66l-.77-20.27a1.45,1.45,0,1,0-2.89.2L82.06,85.1h-.68A6.42,6.42,0,0,1,75,78.73V66.38l6.46-18.33H72.12V72.27H64V48.05H54.66l6.46,18.33V78.63A6.42,6.42,0,0,1,54.75,85a1.1,1.1,0,0,0-.77.29V53a5.74,5.74,0,0,0-3.86-5.4V42.65a2.8,2.8,0,0,1,2.8-2.8h4.63a1.45,1.45,0,1,0,0-2.9H52.92a5.71,5.71,0,0,0-5.69,5.7v4.53h-3a1.18,1.18,0,0,0-.87.29,7,7,0,0,0-2.8,1.93,7.16,7.16,0,0,1-5.69,2.7h0a7.09,7.09,0,0,1-5.69-2.8,6.16,6.16,0,0,0-2.61-1.83,1.24,1.24,0,0,0-1-.39.57.57,0,0,0-.39.1c-.29,0-.48-.1-.77-.1H20.6a5.71,5.71,0,0,0-5.69,5.7V86.26a1.45,1.45,0,0,0,2.89,0V53a2.81,2.81,0,0,1,2.8-2.8h3.57v9.65l-4.25,1.64L25,76.12,18.77,94a1.4,1.4,0,0,0,.86,1.84,1,1,0,0,0,.49.09,1.45,1.45,0,0,0,1.35-1l6.65-18.82-4.53-13,2.51-1a7.74,7.74,0,0,1,7.72,1.16l1.06.87.87-.77a7.58,7.58,0,0,1,7.91-1.06h0l1.73.77L41.05,76.22,48.39,95a1.43,1.43,0,0,0,2.7-1l-7-17.95L49,61.46,45.68,60V50.07h2.51a2.8,2.8,0,0,1,2.8,2.8V86.35a1.49,1.49,0,0,0,1.45,1.45,1.1,1.1,0,0,0,.77-.29v6.85a1.45,1.45,0,1,0,2.89,0V87.61a9.52,9.52,0,0,0,6.76-4.83H73.09a9.5,9.5,0,0,0,6.75,4.83v6.75a1.45,1.45,0,1,0,2.89,0V87.8H85l-.19-5.89h1.83A3.41,3.41,0,0,0,90,78.54V42.65A5.64,5.64,0,0,0,84.28,37Zm-9.36,14h2.41L74.92,57.7ZM34.78,60.49a10.86,10.86,0,0,0-7.91-1.64V51.43a10.24,10.24,0,0,0,7.82,3.66h0a10.08,10.08,0,0,0,7.91-3.76v7.72A10.33,10.33,0,0,0,34.78,60.49ZM61.12,57.7l-2.41-6.76h2.41Zm2.7,22.38a7,7,0,0,0,.1-1.45V75.16H72v3.47c0,.49.1,1,.1,1.45Z"/>
  <path class="primary" d="M70.87,25.28a4.26,4.26,0,0,1-6,0,1.43,1.43,0,1,0-2,2,7.14,7.14,0,0,0,5,2.13,6.77,6.77,0,0,0,5-2.13,1.39,1.39,0,0,0,0-2A1.6,1.6,0,0,0,70.87,25.28Z"/>
  <path class="primary" d="M72.6,47.08a3.07,3.07,0,0,0,1.26.39,1.92,1.92,0,0,0,1.25-.39,2.68,2.68,0,0,0,1.26-2.22v-4a2.55,2.55,0,0,0-1.26-2.22,2.53,2.53,0,0,0-2.6,0l-3.38,1.93a2.73,2.73,0,0,0-.58.48,2.41,2.41,0,0,0-.77-.19c-.19,0-.48.1-.68.1a1.65,1.65,0,0,0-.48-.39l-3.38-1.93a2.53,2.53,0,0,0-2.6,0,2.68,2.68,0,0,0-1.26,2.22v4a2.55,2.55,0,0,0,1.26,2.22,3.07,3.07,0,0,0,1.25.39,2,2,0,0,0,1.26-.39l3.37-1.93a2.08,2.08,0,0,0,.49-.38,1.72,1.72,0,0,0,.67.09,1.75,1.75,0,0,0,.77-.19c.2.19.39.29.58.48Zm1-5.69v2.9l-2.51-1.45Zm-11.39,2.9v-2.9l2.51,1.45Z"/>
  <circle class="primary" cx="67.78" cy="51.14" r="1.25"/>
  <circle class="primary" cx="67.78" cy="56.64" r="1.25"/>
  <circle class="primary" cx="67.78" cy="62.13" r="1.25"/>
  <circle class="primary" cx="67.78" cy="67.63" r="1.25"/>
  <path class="primary" d="M68.65,89.05A1.49,1.49,0,0,0,67.2,90.5v4a1.45,1.45,0,1,0,2.89,0v-4A1.36,1.36,0,0,0,68.65,89.05Z"/>
</svg>
