<svg xmlns="http://www.w3.org/2000/svg" viewBox="0 0 96 96">
  <path class="primary" d="M21.37,42.93a1.16,1.16,0,0,0,2.32,0V25.13a6.51,6.51,0,0,1,1.4-4l1.16-1.16a6.5,6.5,0,0,1,4-1.39H43.51a2.74,2.74,0,0,1,2.71,2.71v3.17H44.67A2.61,2.61,0,0,1,42,21.8a1.16,1.16,0,1,0-2.32,0,2.45,2.45,0,0,1-2.48,2.47h-6a5,5,0,0,0-5,5V35a11.15,11.15,0,0,0,22.29,0V21.18a5,5,0,0,0-4.33-5l.07-.15a3.26,3.26,0,0,0-3.17-4h-.23a1.1,1.1,0,0,1-.78-.38l-.54-.78a3.09,3.09,0,0,0-2.71-1.31A3.2,3.2,0,0,0,34.22,11l-.39.62a.94.94,0,0,1-.77.38,3.39,3.39,0,0,0-2.71,1.4,1.57,1.57,0,0,0-.31.62,30.8,30.8,0,0,0-5.34,4.1,8.89,8.89,0,0,0-1.47,1.47,33.05,33.05,0,0,0-8.9,22.45V65.77a1.16,1.16,0,1,0,2.32,0V42.08a30.63,30.63,0,0,1,4.72-16.26Zm16,.85A8.82,8.82,0,0,1,28.49,35V29.31A2.74,2.74,0,0,1,31.2,26.6h6A4.85,4.85,0,0,0,40.8,25a5,5,0,0,0,3.79,1.78h1.55V35A8.87,8.87,0,0,1,37.32,43.78ZM33,14.37a3.26,3.26,0,0,0,2.71-1.47l.39-.62a.92.92,0,0,1,.77-.39,1,1,0,0,1,.78.39l.54.77a3.26,3.26,0,0,0,2.63,1.32H41a.81.81,0,0,1,.7.38,1,1,0,0,1,.15.78l-.07.62H32.36l-.23-.55a1,1,0,0,1,.08-.85A1.06,1.06,0,0,1,33,14.37Z"/>
  <circle class="primary" cx="33.91" cy="31.86" r="1.32"/>
  <circle class="primary" cx="40.88" cy="31.86" r="1.32"/>
  <path class="primary" d="M39.72,38.05a3.4,3.4,0,0,1-4.8,0,1.15,1.15,0,0,0-1.63,1.63,5.79,5.79,0,0,0,4,1.7,5.43,5.43,0,0,0,4-1.7,1.15,1.15,0,1,0-1.62-1.63Z"/>
  <path class="primary" d="M43.12,75.52a1.19,1.19,0,0,0-1.31-1,1.21,1.21,0,0,0-1,1.32L42,85.19a1.11,1.11,0,0,0,1.16,1h.16a1.21,1.21,0,0,0,1-1.32Z"/>
  <path class="primary" d="M33.14,74.51a1.1,1.1,0,0,0-1.32.93l-1.7,9.37a1.08,1.08,0,0,0,.93,1.31h.23a1.22,1.22,0,0,0,1.16-.93l1.63-9.28A1.22,1.22,0,0,0,33.14,74.51Z"/>
  <path class="primary" d="M37.55,74.51a1.19,1.19,0,0,0-1.16,1.16V85a1.16,1.16,0,1,0,2.32,0V75.67A1.14,1.14,0,0,0,37.55,74.51Z"/>
  <path class="primary" d="M63.87,37.82A11.15,11.15,0,0,0,75,26.67v-16a1.2,1.2,0,0,0-1.17-1.16,1.07,1.07,0,0,0-1.08,1.16v16a8.83,8.83,0,1,1-17.65,0v-16a1.16,1.16,0,1,0-2.32,0v16A11.08,11.08,0,0,0,63.87,37.82Z"/>
  <path class="primary" d="M63.87,17.54A1.19,1.19,0,0,0,65,16.38V10.65a1.19,1.19,0,0,0-1.16-1.16,1.14,1.14,0,0,0-1.16,1.16v5.73A1.19,1.19,0,0,0,63.87,17.54Z"/>
  <path class="primary" d="M68.75,17.54a1.19,1.19,0,0,0,1.16-1.16V10.65a1.17,1.17,0,0,0-2.33,0v5.73A1.2,1.2,0,0,0,68.75,17.54Z"/>
  <path class="primary" d="M58.91,17.54a1.2,1.2,0,0,0,1.17-1.16V10.65a1.17,1.17,0,0,0-2.33,0v5.73A1.19,1.19,0,0,0,58.91,17.54Z"/>
  <circle class="primary" cx="60.54" cy="23.66" r="1.32"/>
  <circle class="primary" cx="67.43" cy="23.66" r="1.32"/>
  <path class="primary" d="M77.11,39.14H72.38a1.16,1.16,0,1,0,0,2.32h4.73a2.25,2.25,0,0,1,2.24,2.24V72.58A.36.36,0,0,1,79,73H77.41L76.8,56.71a1.17,1.17,0,0,0-2.33.15l.85,20.9h-.54a5.16,5.16,0,0,1-5.11-5.11v-9.9L74.86,48H67.35V67.47h-6.5V48H53.34l5.19,14.71v9.83a5.16,5.16,0,0,1-5.11,5.11.85.85,0,0,0-.62.23V52a4.61,4.61,0,0,0-3.1-4.34V43.7A2.25,2.25,0,0,1,52,41.46h3.71a1.16,1.16,0,1,0,0-2.32H52a4.57,4.57,0,0,0-4.57,4.56v3.64H45a1,1,0,0,0-.7.23A5.66,5.66,0,0,0,42,49.12a5.74,5.74,0,0,1-4.57,2.17h0a5.7,5.7,0,0,1-4.56-2.24,5,5,0,0,0-2.09-1.48,1,1,0,0,0-.78-.31.45.45,0,0,0-.31.08c-.23,0-.39-.08-.62-.08H26a4.57,4.57,0,0,0-4.57,4.57V78.69a1.16,1.16,0,0,0,2.32,0V52A2.25,2.25,0,0,1,26,49.74h2.86v7.74L25.47,58.8l4.11,11.76-5,14.32a1.12,1.12,0,0,0,.69,1.48.77.77,0,0,0,.39.07,1.16,1.16,0,0,0,1.08-.77l5.34-15.1L28.42,60.11l2-.77a6.2,6.2,0,0,1,6.19.93l.85.7.7-.62a6.08,6.08,0,0,1,6.35-.85h0l1.39.61L42.43,70.64l5.88,15.1a1.14,1.14,0,0,0,1.47.69,1.15,1.15,0,0,0,.7-1.47L44.9,70.56,48.77,58.8l-2.63-1.16v-8h2a2.25,2.25,0,0,1,2.25,2.25V78.77a1.19,1.19,0,0,0,1.16,1.16.9.9,0,0,0,.62-.23v5.49a1.16,1.16,0,1,0,2.32,0V79.78a7.63,7.63,0,0,0,5.42-3.87h8.21a7.61,7.61,0,0,0,5.41,3.87v5.41a1.17,1.17,0,1,0,2.33,0V79.93h1.78l-.16-4.72H79a2.74,2.74,0,0,0,2.71-2.71V43.7A4.52,4.52,0,0,0,77.11,39.14ZM69.6,50.36h1.93L69.6,55.78ZM37.4,58a8.74,8.74,0,0,0-6.35-1.31v-6a8.2,8.2,0,0,0,6.27,2.94h0a8.08,8.08,0,0,0,6.35-3v6.19A8.33,8.33,0,0,0,37.4,58Zm21.13-2.24-1.94-5.42h1.94Zm2.16,18a5.71,5.71,0,0,0,.08-1.16V69.79h6.5v2.79c0,.38.08.77.08,1.16Z"/>
  <path class="primary" d="M66.35,29.77a3.4,3.4,0,0,1-4.8,0,1.15,1.15,0,0,0-1.63,1.63,5.78,5.78,0,0,0,4,1.7,5.43,5.43,0,0,0,4-1.7,1.12,1.12,0,0,0,0-1.63A1.27,1.27,0,0,0,66.35,29.77Z"/>
  <path class="primary" d="M67.74,47.26a2.46,2.46,0,0,0,1,.31,1.51,1.51,0,0,0,1-.31,2.13,2.13,0,0,0,1-1.78V42.31a2.06,2.06,0,0,0-1-1.78,2,2,0,0,0-2.09,0L65,42.08a2,2,0,0,0-.46.39,1.78,1.78,0,0,0-.62-.16c-.16,0-.39.08-.54.08a1.47,1.47,0,0,0-.39-.31l-2.71-1.55a2,2,0,0,0-2.09,0,2.15,2.15,0,0,0-1,1.78v3.17a2,2,0,0,0,1,1.78,2.46,2.46,0,0,0,1,.31,1.51,1.51,0,0,0,1-.31l2.71-1.54a2,2,0,0,0,.39-.31,1.44,1.44,0,0,0,.54.07,1.42,1.42,0,0,0,.62-.15c.16.15.31.23.46.39Zm.77-4.56V45l-2-1.16ZM59.38,45V42.7l2,1.16Z"/>
  <circle class="primary" cx="63.87" cy="50.52" r="1.01"/>
  <circle class="primary" cx="63.87" cy="54.93" r="1.01"/>
  <circle class="primary" cx="63.87" cy="59.34" r="1.01"/>
  <circle class="primary" cx="63.87" cy="63.75" r="1.01"/>
  <path class="primary" d="M64.57,80.94A1.2,1.2,0,0,0,63.4,82.1v3.25a1.17,1.17,0,0,0,2.33,0V82.1A1.1,1.1,0,0,0,64.57,80.94Z"/>
</svg>
