<svg xmlns="http://www.w3.org/2000/svg" viewBox="0 0 96 96">
  <path class="primary" d="M58.78,32.69a3.19,3.19,0,0,1-3.81,0,1.52,1.52,0,0,0-1.87,2.4,6.49,6.49,0,0,0,3.8,1.25,6.2,6.2,0,0,0,3.65-1.21A1.53,1.53,0,0,0,60.9,33,1.5,1.5,0,0,0,58.78,32.69Z"/>
  <path class="primary" d="M53.85,30.9a1.71,1.71,0,1,0-1.71-1.71A1.72,1.72,0,0,0,53.85,30.9Z"/>
  <path class="primary" d="M59.86,27.48a1.71,1.71,0,1,0,1.7,1.71A1.72,1.72,0,0,0,59.86,27.48Z"/>
  <path class="primary" d="M82.65,17.61H75.32A1.52,1.52,0,0,0,74,19.85l3.48,6.5v2.72c-1.37.52-2.6,1.77-3,4.56-.11.78-.23,1.62-.35,2.24a7.52,7.52,0,0,0-2.4-.94,12.44,12.44,0,1,0-17.44,5.4,7.14,7.14,0,0,0-2.63,2.72,5.38,5.38,0,0,0-1.86-1.49,4.24,4.24,0,0,0-3.45-.12A4.55,4.55,0,0,0,43.9,44c-.75,1.85-.53,4.31.61,6.93,1.63,3.73,3.14,4.92,3.78,5.28a6.32,6.32,0,0,0,4.17,1.07,9.83,9.83,0,0,0-4.1,5.21,80.37,80.37,0,0,0-2.75,8.42c-.3,1.88.33,4.85,3.28,5.37a6,6,0,0,0,1,.09,4.93,4.93,0,0,0,4.33-2.2,37.41,37.41,0,0,0,1.94-5.37c.49-2.3,1.51-3.27,3.45-3.27.12,1.61.21,3.26.23,4.95.19,10.53.32,14.2.33,14.35a5,5,0,0,0,5.22,4.28c3.87,0,5.27-2.65,5.33-4.83V68.51a5.2,5.2,0,0,1,2.54-3.32C77.21,62.73,78.57,59,77,54.86c-.59-1.55-1.75-4.08-2.88-6.52-.53-1.14-1.15-2.49-1.66-3.65a8.29,8.29,0,0,0,6.25.45,5.63,5.63,0,0,0,3.43-3.92,53.41,53.41,0,0,0,1.7-8.61,1.49,1.49,0,0,0-.1-.72,5.17,5.17,0,0,0-3.25-3V26.35L84,19.85a1.52,1.52,0,0,0-1.34-2.24Zm-2.54,3L79,22.75l-1.12-2.1ZM53.21,68.14a31.52,31.52,0,0,1-1.55,4.39,1.69,1.69,0,0,1-2.25.74,1.49,1.49,0,0,1-.81-1.83c0-.06.33-1.51,2.62-7.95,1.66-4.67,6.13-5,7.67-4.9.17,1.24.33,2.52.47,3.87C56.91,62.54,54.16,63.7,53.21,68.14Zm1.72-12a6.7,6.7,0,0,0,1.49-1.92c.52-1,.94-1.8,1.29-2.49.23,1.13.47,2.42.71,3.83A12.22,12.22,0,0,0,54.93,56.12ZM80.78,32.75a52.9,52.9,0,0,1-1.56,7.64,2.64,2.64,0,0,1-1.59,1.91,5.38,5.38,0,0,1-4-.42,8.78,8.78,0,0,0-3.2-1.33,2.06,2.06,0,0,0-1.72.68c-.75,1-.53,1.51,2.64,8.38,1.11,2.4,2.25,4.87,2.8,6.33,1.29,3.41-.65,5.51-2.51,6.68a8.05,8.05,0,0,0-4,5.78V84.12a2,2,0,0,1-2.19,1.93c-1.92-.07-2.26-1.25-2.3-1.46,0,0-.13-3.69-.32-14.18A110.34,110.34,0,0,0,60.12,48.5a2.41,2.41,0,0,0-1.59-2,1.83,1.83,0,0,0-2.21,1.06,52.58,52.58,0,0,1-2.59,5.27,2.57,2.57,0,0,1-1.55,1.46,3.07,3.07,0,0,1-2.4-.7s-1.12-.7-2.49-3.84a6.39,6.39,0,0,1-.57-4.58,1.45,1.45,0,0,1,.78-.87,1.17,1.17,0,0,1,1,0,3.61,3.61,0,0,1,1.63,2.29,2.62,2.62,0,0,1,.1,1.79A1.52,1.52,0,0,0,49.74,50a1.49,1.49,0,0,0,1.52,1c2.08-.09,2.38-2.38,2.62-4.22a12.23,12.23,0,0,1,.5-2.46c.4-1,2.57-2.19,3.92-2.72a1.6,1.6,0,0,0,1-1.5,1.52,1.52,0,0,0-1.11-1.49,9.39,9.39,0,1,1,6.19-.5,1.52,1.52,0,0,0,1.23,2.77c1-.45,4.63-2.87,5.6-3a5.28,5.28,0,0,1,1.68.72,4.16,4.16,0,0,0,1.92.69c2,0,2.37-2,2.72-5.27C77.88,30.27,80.92,31.87,80.78,32.75Z"/>
  <path class="primary" d="M31.13,14.56l0,0a11,11,0,0,0-6.6-3.41V8.43a1.52,1.52,0,1,0-3,0v2.7a11.12,11.12,0,0,0-7,3.85l-.05,0,0,0a11.16,11.16,0,1,0,16.76-.47ZM23,14.05a8.08,8.08,0,0,1,4.57,1.42,10.57,10.57,0,0,1-5,1.18,10.84,10.84,0,0,1-4.46-.94A8,8,0,0,1,23,14.05Zm0,16.24a8.09,8.09,0,0,1-7.09-4.24,20.54,20.54,0,0,0,6.85,1.18,20.43,20.43,0,0,0,7.43-1.37A8.11,8.11,0,0,1,23,30.29Zm-.24-6.09a17,17,0,0,1-7.87-1.89s0-.09,0-.14A8.09,8.09,0,0,1,16,18a13.49,13.49,0,0,0,6.56,1.64,13.19,13.19,0,0,0,7.16-2A8.06,8.06,0,0,1,31.09,22,16.81,16.81,0,0,1,22.75,24.2Z"/>
  <path class="primary" d="M16.33,40.54h-.82a1.52,1.52,0,0,0,0,3h.82a1.52,1.52,0,1,0,0-3Z"/>
  <path class="primary" d="M23.67,40.54h-.82a1.52,1.52,0,0,0,0,3h.82a1.52,1.52,0,0,0,0-3Z"/>
  <path class="primary" d="M19.59,36.47A1.52,1.52,0,0,0,18.07,38v.81a1.52,1.52,0,0,0,3,0V38A1.51,1.51,0,0,0,19.59,36.47Z"/>
  <path class="primary" d="M19.59,43.81a1.52,1.52,0,0,0-1.52,1.51v.82a1.52,1.52,0,1,0,3,0v-.82A1.52,1.52,0,0,0,19.59,43.81Z"/>
  <path class="primary" d="M39.11,17.78h-.82a1.52,1.52,0,1,0,0,3h.82a1.52,1.52,0,1,0,0-3Z"/>
  <path class="primary" d="M46.45,20.82a1.52,1.52,0,0,0,0-3h-.82a1.52,1.52,0,0,0,0,3Z"/>
  <path class="primary" d="M42.37,17.56A1.52,1.52,0,0,0,43.89,16v-.82a1.52,1.52,0,0,0-3,0V16A1.52,1.52,0,0,0,42.37,17.56Z"/>
  <path class="primary" d="M43.89,22.56a1.52,1.52,0,0,0-3,0v.82a1.52,1.52,0,0,0,3,0Z"/>
</svg>
