<svg xmlns="http://www.w3.org/2000/svg" viewBox="0 0 96 96">
  <path class="primary" d="M48,67.82l-8-7.67a5.11,5.11,0,0,1,0-7.44,5.64,5.64,0,0,1,7.57,0l.42.4.42-.4a5.64,5.64,0,0,1,7.58,0,5.13,5.13,0,0,1,0,7.45ZM43.79,54.4a2.25,2.25,0,0,0-1.57.62,1.91,1.91,0,0,0,0,2.82L48,63.38l5.78-5.54a1.91,1.91,0,0,0,0-2.82,2.35,2.35,0,0,0-3.14,0L48,57.55,45.36,55A2.23,2.23,0,0,0,43.79,54.4Z"/>
  <path class="primary" d="M57.6,73.6H38.4A6.41,6.41,0,0,1,32,67.2V49.6a6.41,6.41,0,0,1,6.4-6.4H52.8a1.6,1.6,0,0,0,1.6-1.6V36.8A4.91,4.91,0,0,0,49.5,32a4.7,4.7,0,0,0-4.7,4.8v1.6H35.2V36.8a14.4,14.4,0,1,1,28.8,0V67.2A6.41,6.41,0,0,1,57.6,73.6ZM38.4,46.4a3.21,3.21,0,0,0-3.2,3.2V67.2a3.21,3.21,0,0,0,3.2,3.2H57.6a3.21,3.21,0,0,0,3.2-3.2V36.8a11.2,11.2,0,0,0-22.29-1.6h3.25a7.93,7.93,0,0,1,7.74-6.4,8.06,8.06,0,0,1,8.1,8v4.8a4.8,4.8,0,0,1-4.8,4.8Z"/>
</svg>
