<svg xmlns="http://www.w3.org/2000/svg" viewBox="0 0 96 96">
  <path class="primary" d="M51,12.91a.6.6,0,0,0,.4.1,1.5,1.5,0,0,0,1.4-1l1.7-5.2a1.49,1.49,0,1,0-2.8-1L50,11A1.58,1.58,0,0,0,51,12.91Z"/>
  <path class="primary" d="M59.06,16a1.85,1.85,0,0,0,.7-.2l4.2-2.1a1.63,1.63,0,0,0,.7-2,1.63,1.63,0,0,0-2-.7l-4.2,2.1a1.63,1.63,0,0,0-.7,2A1.38,1.38,0,0,0,59.06,16Z"/>
  <path class="primary" d="M42.06,10.31a1.56,1.56,0,0,0,1.3.8,1.85,1.85,0,0,0,.7-.2,1.63,1.63,0,0,0,.7-2l-2.1-4.3a1.63,1.63,0,0,0-2-.7,1.63,1.63,0,0,0-.7,2Z"/>
  <path class="primary" d="M43.06,30.81a1.55,1.55,0,0,0-1.7,1.3l-.5,4.4a1.55,1.55,0,0,0,1.3,1.7h.2a1.51,1.51,0,0,0,1.5-1.3l.5-4.4A1.5,1.5,0,0,0,43.06,30.81Z"/>
  <path class="primary" d="M42,40.71a1.55,1.55,0,0,0-1.7,1.3l-.8,7a2.39,2.39,0,0,1-.7,1.3,1.79,1.79,0,0,1-1.4.4,1.51,1.51,0,0,0-.4,3h.6a4.62,4.62,0,0,0,3-1.1,4.77,4.77,0,0,0,1.8-3.3l.8-7A1.32,1.32,0,0,0,42,40.71Z"/>
  <path class="primary" d="M69.36,87.81l-6,.6-2.2-23.8a8,8,0,0,0,4.7-2.9,8.48,8.48,0,0,0,1.9-6.3l-3-33.4-15.2,1.4.7-6.5-17.9-2.1-1.1,9.5c0,.1-.1.3-.1.4v.2l-2.7,23.2a8.41,8.41,0,0,0,1.8,6.3,8.73,8.73,0,0,0,4.7,3l-2.7,23.8-5.6-.6a1.51,1.51,0,0,0-.4,3l7,.8h0l7.4.9h.2a1.51,1.51,0,0,0,1.5-1.3,1.55,1.55,0,0,0-1.3-1.7l-6-.7,3-23.7a8.52,8.52,0,0,0,8.4-7.6l1.6-13.8L50,57.11a8.4,8.4,0,0,0,3.1,5.8,9.06,9.06,0,0,0,5.2,2l2.2,23.8-5.6.5a1.62,1.62,0,0,0-1.4,1.6,1.52,1.52,0,0,0,1.5,1.4h.1l7.1-.7h0l7.5-.7a1.62,1.62,0,0,0,1.4-1.6A1.5,1.5,0,0,0,69.36,87.81Zm-7.3-62.6.5,5.6a6,6,0,0,0-1.5.9,1.22,1.22,0,0,1-1.6,0,4.11,4.11,0,0,0-5.8-.2,1.21,1.21,0,0,1-1.6,0,3.67,3.67,0,0,0-1.7-1l-.3-4.1ZM47,19.61l-.5,4.2a5,5,0,0,0-1.9,1,1.22,1.22,0,0,1-1.6,0,4.11,4.11,0,0,0-5.8-.1,1.21,1.21,0,0,1-1.6,0,4.7,4.7,0,0,0-1.2-.9l.6-5.6Zm-3.5,30.3a5.39,5.39,0,0,1-2.1,3.7,6,6,0,0,1-4.1,1.2l-.9-.1a5.39,5.39,0,0,1-3.7-2.1,6,6,0,0,1-1.2-4.1l2.6-21.3a4.1,4.1,0,0,0,5.3-.3,1.21,1.21,0,0,1,1.6,0,4.34,4.34,0,0,0,3,1.3,3.6,3.6,0,0,0,2.2-.7Zm9.5,6.9-2.1-22.5a4.22,4.22,0,0,0,5-.5,1.22,1.22,0,0,1,1.6,0,4.56,4.56,0,0,0,2.9,1.3h.1a3.84,3.84,0,0,0,2.5-.9l2,21.5a5.63,5.63,0,0,1-1.3,4.1,5.71,5.71,0,0,1-3.8,2h-.8a5.63,5.63,0,0,1-4.1-1.3A4.94,4.94,0,0,1,53,56.81Z"/>
  <path class="primary" d="M61.36,47.21h.1a1.62,1.62,0,0,0,1.4-1.6l-.7-7.2a1.5,1.5,0,0,0-3,.2l.7,7.2A1.52,1.52,0,0,0,61.36,47.21Z"/>
  <path class="primary" d="M59.36,60.71a4.78,4.78,0,0,0,4.4-5.3l-.4-4.3a1.5,1.5,0,0,0-3,.2l.4,4.3a2,2,0,0,1-1.7,2.1,1.62,1.62,0,0,0-1.4,1.6,1.52,1.52,0,0,0,1.5,1.4Z"/>
</svg>
