<svg xmlns="http://www.w3.org/2000/svg" viewBox="0 0 96 96">
  <path class="primary" d="M49.44,26.28H48.33A21.41,21.41,0,0,0,35.86,65.12v10a3.73,3.73,0,0,0,3.73,3.74h2.7v.08a4.61,4.61,0,0,0,1.43,3.57,6.45,6.45,0,0,0,4.61,2,6.64,6.64,0,0,0,5-2.31,4.42,4.42,0,0,0,1-3.33h2.78a3.57,3.57,0,0,0,2.62-1.12,3.7,3.7,0,0,0,1.12-2.62v-10a21.49,21.49,0,0,0,9-18.19A21.79,21.79,0,0,0,49.44,26.28ZM48.25,82.11c-2,0-3.66-1.59-3.66-2.94v-.08H52C52.22,80.44,50.23,82.11,48.25,82.11ZM42.77,52.25a3.46,3.46,0,0,0,3.41-1.35,5,5,0,0,0,.56-5.32A4.82,4.82,0,0,0,44,43.19a6.35,6.35,0,0,1,4.21-1.35,6.91,6.91,0,0,1,4,1.12,5,5,0,0,0-2.62,2.22,4.83,4.83,0,0,0,.32,5.16,4.11,4.11,0,0,0,4,1.75c2.06-.32,3.41-2.54,3.17-5.4A5.22,5.22,0,0,0,57,45.58h0a2.61,2.61,0,0,1,1.59,1.59c1.11,2.62-.39,7.46-3.41,11A12.47,12.47,0,0,0,52,65.67H44.2a40,40,0,0,0-3.42-7.31c-2.86-5-4-9.53-2.78-11.51a2.75,2.75,0,0,1,1.51-1.19c0,.16-.08.31-.08.55C39.19,49.31,40.54,51.77,42.77,52.25Zm-.48-5.64a3.86,3.86,0,0,1,.16-1A2.15,2.15,0,0,1,44,49.23a.82.82,0,0,1-.64.4C42.61,49.39,42.13,48,42.29,46.61Zm11.76-1.19A6.06,6.06,0,0,1,54.44,47c.08,1.35-.32,2.38-.87,2.46a1.28,1.28,0,0,1-1.35-.56,2.22,2.22,0,0,1-.16-2.22A2.42,2.42,0,0,1,54.05,45.42ZM58.41,67.9v3H38.16v-3Zm0,7.22a1.38,1.38,0,0,1-1.35,1.35H39.51a1.39,1.39,0,0,1-1.35-1.35V73.77H58.41Zm1-11.91a2.33,2.33,0,0,0-1,1.83v.71H54.84A10.11,10.11,0,0,1,57.3,60c3.81-4.37,5.48-10.24,3.89-13.9a6.05,6.05,0,0,0-5.56-3.57h0a8.69,8.69,0,0,0-7.38-3.42,8.36,8.36,0,0,0-7.47,3.74c-3,.16-4.45,1.59-5.08,2.78C33.24,49.87,36.81,57,38.48,60a47.18,47.18,0,0,1,2.94,5.88H38.24v-.71a2.14,2.14,0,0,0-1-1.83,19.18,19.18,0,0,1-8-15.65A19.52,19.52,0,0,1,47.53,28.58,19.09,19.09,0,0,1,59.37,63.21Z"/>
  <path class="primary" d="M47.61,22.23a1.56,1.56,0,0,0,.64.08,1.53,1.53,0,0,0,1.51-1.59L49.6,13a1.55,1.55,0,1,0-3.1.08l.16,7.71A1.34,1.34,0,0,0,47.61,22.23Z"/>
  <path class="primary" d="M70,20.48l-4.92,5.64a1.51,1.51,0,0,0,.15,2.14c.16.08.32.24.48.24a1.63,1.63,0,0,0,1.75-.4l4.92-5.63a1.51,1.51,0,0,0-.16-2.15A1.59,1.59,0,0,0,70,20.48Z"/>
  <path class="primary" d="M31,29.22a1.54,1.54,0,0,0,1.75-2.39l-4.85-6.27a1.51,1.51,0,0,0-2.14-.24,1.54,1.54,0,0,0-.24,2.15l4.85,6.27A1.22,1.22,0,0,0,31,29.22Z"/>
  <path class="primary" d="M22.28,40.89,14.1,37.71a1.53,1.53,0,0,0-2,.88,1.52,1.52,0,0,0,.87,2l8.18,3.26a1.53,1.53,0,0,0,2-.87A1.62,1.62,0,0,0,22.28,40.89Z"/>
  <path class="primary" d="M83.83,38.43a1.52,1.52,0,0,0-2.07-.72l-7.7,3.82a1.5,1.5,0,0,0-.71,2.06,1.36,1.36,0,0,0,.79.72,1.43,1.43,0,0,0,1.27-.08l7.7-3.81A1.4,1.4,0,0,0,83.83,38.43Z"/>
</svg>
