<svg xmlns="http://www.w3.org/2000/svg" viewBox="0 0 96 96">
  <path class="primary" d="M30.89,48.42,18.4,35.92a8.16,8.16,0,0,1,0-11.56,8.37,8.37,0,0,1,11.56,0l.93.94.94-.94a8.37,8.37,0,0,1,11.56,0,8.16,8.16,0,0,1,0,11.56Zm-6.72-22.2a3.92,3.92,0,0,0-2.77,6.69l9.49,9.49,9.49-9.49a3.91,3.91,0,0,0,0-5.54,4,4,0,0,0-5.54,0l-4,3.94L27,27.37A3.91,3.91,0,0,0,24.17,26.22Z"/>
  <path class="primary" d="M79.75,39.65c-2.12-12-17.52-19.27-18.17-19.57l-3-1.41V58.2a10.62,10.62,0,1,0,4.26,8.49V25.59C67,28.13,74.33,33.44,75.57,40.4c.8,4.53-1.19,9.23-5.93,14a2.13,2.13,0,0,0,3,3C78.43,51.6,80.82,45.64,79.75,39.65ZM52.17,73.07a6.39,6.39,0,1,1,6.38-6.38A6.38,6.38,0,0,1,52.17,73.07Z"/>
</svg>
