<svg xmlns="http://www.w3.org/2000/svg" viewBox="0 0 96 96">
  <path class="primary" d="M48,18.22A29.78,29.78,0,1,0,77.78,48,29.81,29.81,0,0,0,48,18.22Zm0,57A27.21,27.21,0,1,1,75.21,48,27.24,27.24,0,0,1,48,75.21Z"/>
  <path class="primary" d="M48,28.68a19.32,19.32,0,0,0,0,38.64,1.28,1.28,0,1,0,0-2.56A16.76,16.76,0,1,1,64.76,48a1.28,1.28,0,1,0,2.56,0A19.33,19.33,0,0,0,48,28.68Z"/>
  <path class="primary" d="M65.33,53.2a1.29,1.29,0,0,0-1.66.74,16.79,16.79,0,0,1-9.36,9.59A1.28,1.28,0,0,0,54.79,66a1.36,1.36,0,0,0,.48-.09,19.39,19.39,0,0,0,10.8-11.06A1.28,1.28,0,0,0,65.33,53.2Z"/>
  <path class="primary" d="M12.32,27.18a1,1,0,0,0-1,1v7.07H9.42V28.21a1,1,0,1,0-2.06,0v7.07H5.49V28.21a1,1,0,1,0-2.05,0v9.25a5,5,0,0,0,3.67,4.77V66.51a1.28,1.28,0,1,0,2.56,0V42.23a5,5,0,0,0,3.67-4.77V28.21A1,1,0,0,0,12.32,27.18Zm-1,10.28a2.9,2.9,0,0,1-5.8,0v-.13h5.8Z"/>
  <path class="primary" d="M91.72,32c-.61-4.31-3.52-5.57-5-5.64a1.1,1.1,0,0,0-.76.29,1,1,0,0,0-.31.74v40a1,1,0,0,0,2,0V48.25h3.82a1,1,0,0,0,.73-.31,1,1,0,0,0,.29-.74C92.56,46.77,92.37,36.58,91.72,32Zm-4,14.22V28.77a4.47,4.47,0,0,1,2,3.49c.51,3.64.73,11.17.8,13.94Z"/>
</svg>
