<svg xmlns="http://www.w3.org/2000/svg" viewBox="0 0 96 96">
  <path class="primary" d="M80.4,19.2H15.6A3.6,3.6,0,0,0,12,22.8V73.2a3.6,3.6,0,0,0,3.6,3.6H80.4A3.6,3.6,0,0,0,84,73.2V22.8A3.6,3.6,0,0,0,80.4,19.2Zm1.2,54a1.2,1.2,0,0,1-1.2,1.2H15.6a1.2,1.2,0,0,1-1.2-1.2V22.8a1.2,1.2,0,0,1,1.2-1.2H80.4a1.2,1.2,0,0,1,1.2,1.2Z"/>
  <path class="primary" d="M45.6,25.2A21.6,21.6,0,1,0,67.2,46.8,21.6,21.6,0,0,0,45.6,25.2Zm0,40.8A19.2,19.2,0,1,1,64.8,46.8,19.2,19.2,0,0,1,45.6,66Z"/>
  <path class="primary" d="M45.6,30a1.2,1.2,0,0,0,0,2.4A14.41,14.41,0,0,1,59.06,51.94a1.15,1.15,0,0,0,.19,1.18,1.2,1.2,0,0,0,2-.32A16.82,16.82,0,0,0,45.6,30Z"/>
  <path class="primary" d="M49.54,35.46a1.2,1.2,0,1,0-.79,2.27,9.6,9.6,0,0,1,6.39,10.14,1.19,1.19,0,0,0,1.06,1.32h.14a1.2,1.2,0,0,0,1.19-1.07,11.85,11.85,0,0,0,.07-1.33,12,12,0,0,0-8.06-11.34Z"/>
  <path class="primary" d="M44.57,61.51A14.41,14.41,0,0,1,32.64,41a1.2,1.2,0,0,0-.09-1.2,1.21,1.21,0,0,0-2.08.18A16.83,16.83,0,0,0,44.38,63.91h.1a1.2,1.2,0,0,0,.09-2.4Z"/>
  <path class="primary" d="M40.54,58a11.08,11.08,0,0,0,1.24.5A1.21,1.21,0,0,0,43,58.28a1.22,1.22,0,0,0,.39-1.14,1.19,1.19,0,0,0-.79-.9c-.34-.12-.67-.26-1-.41a9.59,9.59,0,0,1-5.45-9.71,1.23,1.23,0,0,0-.26-.88,1.26,1.26,0,0,0-.81-.44,1.23,1.23,0,0,0-.88.26,1.18,1.18,0,0,0-.44.81A12,12,0,0,0,40.54,58Z"/>
  <path class="primary" d="M45.6,39.6a7.2,7.2,0,1,0,7.2,7.2,7.2,7.2,0,0,0-7.2-7.2Zm0,12a4.8,4.8,0,1,1,4.8-4.8,4.8,4.8,0,0,1-4.8,4.8Z"/>
  <path class="primary" d="M46.45,46a1.2,1.2,0,0,0-1.31-.25,1.08,1.08,0,0,0-.39.25,1.24,1.24,0,0,0-.25.39,1.13,1.13,0,0,0,0,.92,1.24,1.24,0,0,0,.25.39,1.08,1.08,0,0,0,.39.25,1.06,1.06,0,0,0,.46.1,1.16,1.16,0,0,0,1.1-.74,1.13,1.13,0,0,0,0-.92A1.24,1.24,0,0,0,46.45,46Z"/>
  <path class="primary" d="M20.4,64.8A3.6,3.6,0,1,0,24,68.4,3.6,3.6,0,0,0,20.4,64.8Zm0,4.8a1.2,1.2,0,1,1,1.2-1.2,1.2,1.2,0,0,1-1.2,1.2Z"/>
  <path class="primary" d="M20.4,55.2A3.6,3.6,0,1,0,24,58.8,3.6,3.6,0,0,0,20.4,55.2Zm0,4.8a1.2,1.2,0,1,1,1.2-1.2A1.2,1.2,0,0,1,20.4,60Z"/>
  <path class="primary" d="M20.4,31.2a3.6,3.6,0,1,0-3.6-3.6,3.6,3.6,0,0,0,3.6,3.6Zm0-4.8a1.2,1.2,0,1,1-1.2,1.2,1.2,1.2,0,0,1,1.2-1.2Z"/>
  <path class="primary" d="M26.75,70a1.23,1.23,0,0,0-.35.85.9.9,0,0,0,.1.46.81.81,0,0,0,.1.21l.15.18a1.23,1.23,0,0,0,.85.35l.24,0a.83.83,0,0,0,.22-.08,1,1,0,0,0,.21-.1l.18-.15a1.23,1.23,0,0,0,.35-.85A1.2,1.2,0,0,0,26.75,70Z"/>
  <path class="primary" d="M33.25,70a1.18,1.18,0,0,0-1.95.39,1.06,1.06,0,0,0-.1.46,1.94,1.94,0,0,0,0,.24,1,1,0,0,0,.08.22.81.81,0,0,0,.1.21l.15.18a1.23,1.23,0,0,0,.85.35l.24,0a.83.83,0,0,0,.22-.08,1,1,0,0,0,.21-.1l.18-.15.15-.18a.81.81,0,0,0,.1-.21,1,1,0,0,0,.08-.22,1.94,1.94,0,0,0,0-.24,1.06,1.06,0,0,0-.1-.46,1.24,1.24,0,0,0-.25-.39Z"/>
  <path class="primary" d="M27.6,26.4l.24,0a.83.83,0,0,0,.22-.08,1,1,0,0,0,.21-.1l.18-.15a1.21,1.21,0,1,0-.85.35Z"/>
  <path class="primary" d="M64.8,68.4H61.2a1.2,1.2,0,0,0-2.4,0H57.6a1.2,1.2,0,1,0,0,2.4h1.2a1.2,1.2,0,1,0,2.4,0h3.6a1.2,1.2,0,1,0,0-2.4Z"/>
  <path class="primary" d="M78,29V25.2A1.2,1.2,0,0,0,76.8,24H72a1.2,1.2,0,0,0-1.2,1.2V29a3.58,3.58,0,0,0,0,6.76V39.6A1.2,1.2,0,0,0,72,40.8h1.56l3,8.29a4.29,4.29,0,0,1,.08,2.72l-1.56,5.38-1.32-.66a1.18,1.18,0,0,0-.92-.07,1.2,1.2,0,0,0-.69.6l-4.8,9.6a1.18,1.18,0,0,0-.07.92,1.2,1.2,0,0,0,.6.69l4.8,2.4a1.18,1.18,0,0,0,1.54-.43l3.26,1.63a1.2,1.2,0,1,0,1.08-2.14L75.29,68.1l3.78-7.56a1.18,1.18,0,0,0,.07-.92,1.2,1.2,0,0,0-.6-.69l-1.3-.65,1.69-5.8a6.78,6.78,0,0,0-.13-4.2L76.11,40.8h.69A1.2,1.2,0,0,0,78,39.6V35.78A3.58,3.58,0,0,0,78,29ZM72.66,68,70,66.66l3.73-7.45,2.65,1.33ZM75.6,26.4v2.4H73.2V26.4ZM73.2,36h2.4v2.4H73.2Zm3.6-2.4H72a1.2,1.2,0,0,1,0-2.4h4.8a1.2,1.2,0,1,1,0,2.4Z"/>
</svg>
